<mxfile host="app.diagrams.net" modified="2021-01-10T21:53:46.089Z" agent="5.0 (Windows NT 10.0; Win64; x64) AppleWebKit/537.36 (KHTML, like Gecko) Chrome/87.0.4280.141 Safari/537.36" etag="4N23VSw8IcdhZ3H6gPy9" version="14.1.9" type="github">
  <diagram id="_0CjULQDfYpoH-80Ni5U" name="Page-1">
    <mxGraphModel dx="870" dy="595" grid="1" gridSize="10" guides="1" tooltips="1" connect="1" arrows="1" fold="1" page="1" pageScale="1" pageWidth="1169" pageHeight="827" math="0" shadow="0">
      <root>
        <mxCell id="0" />
        <mxCell id="1" parent="0" />
        <mxCell id="ahRhHKIJle8awH1ZMlcm-3" style="edgeStyle=orthogonalEdgeStyle;rounded=0;orthogonalLoop=1;jettySize=auto;html=1;entryX=0.5;entryY=0;entryDx=0;entryDy=0;" edge="1" parent="1" source="ahRhHKIJle8awH1ZMlcm-1" target="ahRhHKIJle8awH1ZMlcm-2">
          <mxGeometry relative="1" as="geometry" />
        </mxCell>
        <mxCell id="ahRhHKIJle8awH1ZMlcm-1" value="Implemented algorithms" style="rounded=1;whiteSpace=wrap;html=1;fontStyle=1;fontSize=14;fillColor=#f5f5f5;strokeColor=#666666;fontColor=#333333;" vertex="1" parent="1">
          <mxGeometry x="520" y="120" width="120" height="60" as="geometry" />
        </mxCell>
        <mxCell id="ahRhHKIJle8awH1ZMlcm-22" style="edgeStyle=orthogonalEdgeStyle;rounded=0;orthogonalLoop=1;jettySize=auto;html=1;entryX=1;entryY=0.5;entryDx=0;entryDy=0;" edge="1" parent="1" source="ahRhHKIJle8awH1ZMlcm-2" target="ahRhHKIJle8awH1ZMlcm-10">
          <mxGeometry relative="1" as="geometry">
            <Array as="points">
              <mxPoint x="580" y="300" />
              <mxPoint x="500" y="300" />
              <mxPoint x="500" y="650" />
            </Array>
          </mxGeometry>
        </mxCell>
        <mxCell id="ahRhHKIJle8awH1ZMlcm-23" style="edgeStyle=orthogonalEdgeStyle;rounded=0;orthogonalLoop=1;jettySize=auto;html=1;entryX=1;entryY=0.5;entryDx=0;entryDy=0;" edge="1" parent="1" source="ahRhHKIJle8awH1ZMlcm-2" target="ahRhHKIJle8awH1ZMlcm-14">
          <mxGeometry relative="1" as="geometry">
            <Array as="points">
              <mxPoint x="580" y="300" />
              <mxPoint x="660" y="300" />
              <mxPoint x="660" y="650" />
            </Array>
          </mxGeometry>
        </mxCell>
        <mxCell id="ahRhHKIJle8awH1ZMlcm-24" style="edgeStyle=orthogonalEdgeStyle;rounded=0;orthogonalLoop=1;jettySize=auto;html=1;entryX=1;entryY=0.5;entryDx=0;entryDy=0;" edge="1" parent="1" source="ahRhHKIJle8awH1ZMlcm-2" target="ahRhHKIJle8awH1ZMlcm-15">
          <mxGeometry relative="1" as="geometry">
            <Array as="points">
              <mxPoint x="580" y="300" />
              <mxPoint x="820" y="300" />
              <mxPoint x="820" y="350" />
            </Array>
          </mxGeometry>
        </mxCell>
        <mxCell id="ahRhHKIJle8awH1ZMlcm-2" value="Off-policy" style="rounded=1;whiteSpace=wrap;html=1;fontStyle=1;fontSize=14;fillColor=#e1d5e7;strokeColor=#9673a6;" vertex="1" parent="1">
          <mxGeometry x="520" y="220" width="120" height="60" as="geometry" />
        </mxCell>
        <mxCell id="ahRhHKIJle8awH1ZMlcm-35" style="edgeStyle=orthogonalEdgeStyle;rounded=0;orthogonalLoop=1;jettySize=auto;html=1;entryX=1;entryY=0.5;entryDx=0;entryDy=0;" edge="1" parent="1" source="ahRhHKIJle8awH1ZMlcm-4" target="ahRhHKIJle8awH1ZMlcm-27">
          <mxGeometry relative="1" as="geometry" />
        </mxCell>
        <mxCell id="ahRhHKIJle8awH1ZMlcm-4" value="DQN" style="rounded=1;whiteSpace=wrap;html=1;fontStyle=0;fontSize=14;fillColor=#d5e8d4;strokeColor=#82b366;" vertex="1" parent="1">
          <mxGeometry x="360" y="320" width="120" height="60" as="geometry" />
        </mxCell>
        <mxCell id="ahRhHKIJle8awH1ZMlcm-8" value="Categorical DQN" style="rounded=1;whiteSpace=wrap;html=1;fontSize=14;fillColor=#d5e8d4;strokeColor=#82b366;" vertex="1" parent="1">
          <mxGeometry x="360" y="420" width="120" height="60" as="geometry" />
        </mxCell>
        <mxCell id="ahRhHKIJle8awH1ZMlcm-9" value="Quantile Regression DQN" style="rounded=1;whiteSpace=wrap;html=1;fontStyle=0;fontSize=14;fillColor=#d5e8d4;strokeColor=#82b366;" vertex="1" parent="1">
          <mxGeometry x="360" y="520" width="120" height="60" as="geometry" />
        </mxCell>
        <mxCell id="ahRhHKIJle8awH1ZMlcm-10" value="Munchausen DQN" style="rounded=1;whiteSpace=wrap;html=1;fontStyle=0;fontSize=14;fillColor=#d5e8d4;strokeColor=#82b366;" vertex="1" parent="1">
          <mxGeometry x="360" y="620" width="120" height="60" as="geometry" />
        </mxCell>
        <mxCell id="ahRhHKIJle8awH1ZMlcm-11" value="DDPG" style="rounded=1;whiteSpace=wrap;html=1;fontStyle=0;fontSize=14;fillColor=#d5e8d4;strokeColor=#82b366;" vertex="1" parent="1">
          <mxGeometry x="520" y="320" width="120" height="60" as="geometry" />
        </mxCell>
        <mxCell id="ahRhHKIJle8awH1ZMlcm-12" value="Categorical DDPG" style="rounded=1;whiteSpace=wrap;html=1;fontStyle=0;fontSize=14;fillColor=#d5e8d4;strokeColor=#82b366;" vertex="1" parent="1">
          <mxGeometry x="520" y="420" width="120" height="60" as="geometry" />
        </mxCell>
        <mxCell id="ahRhHKIJle8awH1ZMlcm-13" value="Quantile Regression DDPG" style="rounded=1;whiteSpace=wrap;html=1;fontStyle=0;fontSize=14;fillColor=#d5e8d4;strokeColor=#82b366;" vertex="1" parent="1">
          <mxGeometry x="520" y="520" width="120" height="60" as="geometry" />
        </mxCell>
        <mxCell id="ahRhHKIJle8awH1ZMlcm-14" value="TD3" style="rounded=1;whiteSpace=wrap;html=1;fontStyle=0;fontSize=14;fillColor=#d5e8d4;strokeColor=#82b366;" vertex="1" parent="1">
          <mxGeometry x="520" y="620" width="120" height="60" as="geometry" />
        </mxCell>
        <mxCell id="ahRhHKIJle8awH1ZMlcm-15" value="SAC" style="rounded=1;whiteSpace=wrap;html=1;fontStyle=0;fontSize=14;fillColor=#d5e8d4;strokeColor=#82b366;" vertex="1" parent="1">
          <mxGeometry x="680" y="320" width="120" height="60" as="geometry" />
        </mxCell>
        <mxCell id="ahRhHKIJle8awH1ZMlcm-25" value="Double DQN" style="rounded=1;whiteSpace=wrap;html=1;fontStyle=0;fontSize=14;fillColor=#d5e8d4;strokeColor=#82b366;" vertex="1" parent="1">
          <mxGeometry x="200" y="320" width="120" height="60" as="geometry" />
        </mxCell>
        <mxCell id="ahRhHKIJle8awH1ZMlcm-26" value="Dueling DQN" style="rounded=1;whiteSpace=wrap;html=1;fontStyle=0;fontSize=14;fillColor=#d5e8d4;strokeColor=#82b366;" vertex="1" parent="1">
          <mxGeometry x="200" y="420" width="120" height="60" as="geometry" />
        </mxCell>
        <mxCell id="ahRhHKIJle8awH1ZMlcm-27" value="NoisyNet DQN" style="rounded=1;whiteSpace=wrap;html=1;fontStyle=0;fontSize=14;fillColor=#d5e8d4;strokeColor=#82b366;" vertex="1" parent="1">
          <mxGeometry x="200" y="520" width="120" height="60" as="geometry" />
        </mxCell>
        <mxCell id="ahRhHKIJle8awH1ZMlcm-29" value="" style="endArrow=classic;html=1;entryX=1;entryY=0.5;entryDx=0;entryDy=0;" edge="1" parent="1" target="ahRhHKIJle8awH1ZMlcm-4">
          <mxGeometry width="50" height="50" relative="1" as="geometry">
            <mxPoint x="500" y="350" as="sourcePoint" />
            <mxPoint x="530" y="370" as="targetPoint" />
          </mxGeometry>
        </mxCell>
        <mxCell id="ahRhHKIJle8awH1ZMlcm-30" value="" style="endArrow=classic;html=1;entryX=1;entryY=0.5;entryDx=0;entryDy=0;" edge="1" parent="1">
          <mxGeometry width="50" height="50" relative="1" as="geometry">
            <mxPoint x="500" y="449.83" as="sourcePoint" />
            <mxPoint x="480" y="449.83" as="targetPoint" />
          </mxGeometry>
        </mxCell>
        <mxCell id="ahRhHKIJle8awH1ZMlcm-31" value="" style="endArrow=classic;html=1;entryX=1;entryY=0.5;entryDx=0;entryDy=0;" edge="1" parent="1">
          <mxGeometry width="50" height="50" relative="1" as="geometry">
            <mxPoint x="500" y="549.8299999999999" as="sourcePoint" />
            <mxPoint x="480" y="549.8299999999999" as="targetPoint" />
          </mxGeometry>
        </mxCell>
        <mxCell id="ahRhHKIJle8awH1ZMlcm-32" value="" style="endArrow=classic;html=1;entryX=1;entryY=0.5;entryDx=0;entryDy=0;" edge="1" parent="1">
          <mxGeometry width="50" height="50" relative="1" as="geometry">
            <mxPoint x="660" y="349.83" as="sourcePoint" />
            <mxPoint x="640" y="349.83" as="targetPoint" />
          </mxGeometry>
        </mxCell>
        <mxCell id="ahRhHKIJle8awH1ZMlcm-33" value="" style="endArrow=classic;html=1;entryX=1;entryY=0.5;entryDx=0;entryDy=0;" edge="1" parent="1">
          <mxGeometry width="50" height="50" relative="1" as="geometry">
            <mxPoint x="660" y="449.8299999999999" as="sourcePoint" />
            <mxPoint x="640" y="449.8299999999999" as="targetPoint" />
          </mxGeometry>
        </mxCell>
        <mxCell id="ahRhHKIJle8awH1ZMlcm-34" value="" style="endArrow=classic;html=1;entryX=1;entryY=0.5;entryDx=0;entryDy=0;" edge="1" parent="1">
          <mxGeometry width="50" height="50" relative="1" as="geometry">
            <mxPoint x="660" y="549.8299999999999" as="sourcePoint" />
            <mxPoint x="640" y="549.8299999999999" as="targetPoint" />
          </mxGeometry>
        </mxCell>
        <mxCell id="ahRhHKIJle8awH1ZMlcm-36" value="" style="endArrow=classic;html=1;entryX=1;entryY=0.5;entryDx=0;entryDy=0;" edge="1" parent="1">
          <mxGeometry width="50" height="50" relative="1" as="geometry">
            <mxPoint x="340" y="349.93999999999994" as="sourcePoint" />
            <mxPoint x="320" y="349.93999999999994" as="targetPoint" />
          </mxGeometry>
        </mxCell>
        <mxCell id="ahRhHKIJle8awH1ZMlcm-37" value="" style="endArrow=classic;html=1;entryX=1;entryY=0.5;entryDx=0;entryDy=0;" edge="1" parent="1">
          <mxGeometry width="50" height="50" relative="1" as="geometry">
            <mxPoint x="340" y="449.8299999999999" as="sourcePoint" />
            <mxPoint x="320" y="449.8299999999999" as="targetPoint" />
          </mxGeometry>
        </mxCell>
      </root>
    </mxGraphModel>
  </diagram>
</mxfile>
